<?xml version="1.0" encoding="UTF-8" standalone="no"?>
<svg
   viewBox="0 0 13 13"
   width="26"
   height="26"
   version="1.1"
   id="svg4"
   sodipodi:docname="icons8-workday.svg"
   inkscape:version="1.2.2 (b0a8486541, 2022-12-01)"
   xmlns:inkscape="http://www.inkscape.org/namespaces/inkscape"
   xmlns:sodipodi="http://sodipodi.sourceforge.net/DTD/sodipodi-0.dtd"
   xmlns="http://www.w3.org/2000/svg"
   xmlns:svg="http://www.w3.org/2000/svg">
  <defs
     id="defs8" />
  <sodipodi:namedview
     id="namedview6"
     pagecolor="#ffffff"
     bordercolor="#000000"
     borderopacity="0.25"
     inkscape:showpageshadow="2"
     inkscape:pageopacity="0.0"
     inkscape:pagecheckerboard="0"
     inkscape:deskcolor="#d1d1d1"
     showgrid="false"
     inkscape:lockguides="false"
     inkscape:zoom="32.09375"
     inkscape:cx="13.990263"
     inkscape:cy="9.0360273"
     inkscape:window-width="1452"
     inkscape:window-height="1196"
     inkscape:window-x="116"
     inkscape:window-y="82"
     inkscape:window-maximized="0"
     inkscape:current-layer="svg4" />
  <path
     d="M 6.5,0 C 2.9160694,0 0,2.916072 0,6.5 0,10.083928 2.9160694,13 6.5,13 10.083931,13 13,10.083928 13,6.5 13,2.916072 10.083931,0 6.5,0 Z m 0,1 C 9.543491,1 12,3.4565112 12,6.5 12,9.543489 9.543491,12 6.5,12 3.4565091,12 1,9.543489 1,6.5 1,3.4565112 3.4565091,1 6.5,1 Z m 0,1 C 5.1693078,2 3.8092675,2.8199291 3.3691406,4.3632812 A 0.50005,0.50005 0 1 0 4.3300781,4.6367188 C 4.6503952,3.5134926 5.5609141,3 6.5,3 7.4390859,3 8.3496048,3.5134926 8.6699219,4.6367188 A 0.50005,0.50005 0 1 0 9.630859,4.3632812 C 9.190733,2.8199291 7.8306922,2 6.5,2 Z M 6.9628906,6.0585938 6.0351562,6.0644531 5.046875,8.5488281 4.2246094,6.0917969 3.2753906,6.4082031 4.5332031,10.162109 5.4707031,10.1875 6.5078125,7.5820312 7.5859375,10.195312 8.5253906,10.15625 9.726562,6.4023438 8.7734375,6.0976562 7.9902344,8.546875 Z"
     id="path2" />
</svg>
